Coordinates
version=1
nRows=16
nColumns=34
inDegrees=no

Units are S.I. units (second, meters, Newtons, ...)
If the header above contains a line with 'inDegrees', this indicates whether rotational values are in degrees (yes) or radians (no).

endheader
time	pelvis_tilt	pelvis_list	pelvis_rotation	pelvis_tx	pelvis_ty	pelvis_tz	hip_flexion_r	hip_adduction_r	hip_rotation_r	knee_angle_r	ankle_angle_r	subtalar_angle_r	mtp_angle_r	hip_flexion_l	hip_adduction_l	hip_rotation_l	knee_angle_l	ankle_angle_l	subtalar_angle_l	mtp_angle_l	lumbar_extension	lumbar_bending	lumbar_rotation	arm_flex_r	arm_add_r	arm_rot_r	elbow_flex_r	pro_sup_r	arm_flex_l	arm_add_l	arm_rot_l	elbow_flex_l	pro_sup_l
0	-0.0705547	0.0234162	0.0198164	-1.1605	1.27248	-0.586943	0.0866652	-0.0655072	-0.147253	0.141073	0.306444	0.222267	0	0.0579748	0.00629703	0.0663141	0.0627612	0.174622	-0.0421853	0	-0.0285286	-0.0347175	-0.0482527	-0.030532	-0.145762	0.12765	0.637973	2.09	-0.0299225	-0.137362	0.0411534	0.581219	2.09
0.01	-0.0702713	0.0239018	0.019767	-1.16048	1.27247	-0.586931	0.0868871	-0.0661737	-0.146605	0.142339	0.307708	0.22194	0	0.0572597	0.00675227	0.0662398	0.0621086	0.174585	-0.0424522	0	-0.0288921	-0.0351986	-0.0481032	-0.0305947	-0.145828	0.128395	0.637702	2.09	-0.0299856	-0.137311	0.0405493	0.581203	2.09
0.02	-0.0698363	0.0243468	0.0195298	-1.16045	1.27247	-0.586925	0.0870917	-0.0667842	-0.146425	0.143784	0.308795	0.222353	0	0.0561503	0.007141	0.0663933	0.0610672	0.174249	-0.043078	0	-0.0294626	-0.0355775	-0.0477956	-0.0306684	-0.145905	0.128818	0.637545	2.09	-0.0298444	-0.136854	0.038992	0.580808	2.09
0.03	-0.0693074	0.0246412	0.0192818	-1.16041	1.2725	-0.586911	0.0870929	-0.0671901	-0.146886	0.144982	0.309628	0.223587	0	0.0549151	0.00737414	0.066824	0.0599909	0.173736	-0.0440267	0	-0.0301793	-0.0357938	-0.0473803	-0.0308273	-0.146006	0.129096	0.637477	2.09	-0.0295105	-0.136124	0.0369272	0.580166	2.09
0.04	-0.0688386	0.0248132	0.0191372	-1.16037	1.27252	-0.586881	0.0868933	-0.0674307	-0.147585	0.145719	0.310416	0.225226	0	0.0538902	0.00751427	0.0673816	0.0591808	0.173213	-0.0452084	0	-0.0308576	-0.0359475	-0.0468805	-0.0310803	-0.146153	0.12959	0.63736	2.09	-0.029174	-0.135577	0.0354217	0.579745	2.09
0.05	-0.06841	0.0249134	0.0190335	-1.16032	1.27253	-0.586855	0.0866464	-0.0676418	-0.148433	0.146339	0.311377	0.226996	0	0.053026	0.00760864	0.0679813	0.0585995	0.17276	-0.0465133	0	-0.03151	-0.0360332	-0.0463341	-0.0313076	-0.146264	0.130016	0.637119	2.09	-0.0289509	-0.135427	0.0350042	0.579722	2.09
0.06	-0.0678556	0.0250004	0.0189394	-1.16027	1.27253	-0.586848	0.0863412	-0.0679094	-0.149556	0.147098	0.312553	0.228669	0	0.0520714	0.00770498	0.0686517	0.0581091	0.172384	-0.0478703	0	-0.0323302	-0.0360203	-0.0458375	-0.0313743	-0.146197	0.129937	0.636738	2.09	-0.028768	-0.135471	0.0353041	0.579839	2.09
0.07	-0.0672172	0.0251309	0.0188915	-1.16024	1.27253	-0.586846	0.0861888	-0.0682459	-0.15061	0.14829	0.313902	0.230153	0	0.0510863	0.00785912	0.0694477	0.0577251	0.172055	-0.0492861	0	-0.0333055	-0.0360035	-0.0453417	-0.0313512	-0.145934	0.129368	0.636272	2.09	-0.0284703	-0.135391	0.0354722	0.5798	2.09
0.08	-0.0667414	0.0253343	0.018933	-1.16019	1.27252	-0.586836	0.0864359	-0.0686636	-0.151294	0.149949	0.315419	0.23172	0	0.0503719	0.00808896	0.0704423	0.0575248	0.171763	-0.0506751	0	-0.0341953	-0.0361117	-0.0446985	-0.0314531	-0.14566	0.128688	0.635814	2.09	-0.0280096	-0.135081	0.0350691	0.579627	2.09
0.09	-0.0664909	0.0255677	0.0190764	-1.16014	1.2725	-0.586824	0.0868903	-0.0691102	-0.151947	0.151625	0.317023	0.233536	0	0.0499973	0.00835051	0.0714872	0.0575156	0.171622	-0.0518526	0	-0.0349274	-0.0362883	-0.0439116	-0.0317692	-0.145565	0.128282	0.635505	2.09	-0.0274879	-0.134716	0.0346055	0.579568	2.09
0.1	-0.0663361	0.0258563	0.0191969	-1.16008	1.27247	-0.586805	0.0875641	-0.0696813	-0.153564	0.153574	0.318959	0.236339	0	0.0498066	0.0086675	0.0725041	0.0576527	0.171552	-0.0531195	0	-0.0356234	-0.0364853	-0.043054	-0.0321663	-0.145497	0.127994	0.635367	2.09	-0.027018	-0.134657	0.0350425	0.57978	2.09
0.11	-0.0663063	0.0261002	0.0191761	-1.16003	1.27244	-0.586756	0.0886772	-0.0701904	-0.155182	0.156044	0.320762	0.238667	0	0.0499108	0.0088686	0.0731088	0.0580912	0.171702	-0.0538697	0	-0.0362228	-0.0365997	-0.0422503	-0.0323633	-0.145059	0.127115	0.63496	2.09	-0.0266222	-0.134887	0.0360881	0.579977	2.09
0.12	-0.0664424	0.0261845	0.0189062	-1.15998	1.2724	-0.586678	0.0901782	-0.0705184	-0.156487	0.158787	0.322534	0.240995	0	0.050374	0.00889369	0.0733182	0.0589118	0.172126	-0.0542705	0	-0.0367168	-0.0365529	-0.0413376	-0.0323008	-0.144321	0.125406	0.634069	2.09	-0.026142	-0.134719	0.0358465	0.579761	2.09
0.13	-0.0666126	0.0261398	0.0185322	-1.15991	1.27236	-0.58661	0.0915014	-0.0706637	-0.157397	0.161025	0.324129	0.243389	0	0.0510689	0.00886987	0.0729938	0.0601443	0.173082	-0.0540781	0	-0.0373144	-0.0363607	-0.0403473	-0.032142	-0.143899	0.124321	0.63319	2.09	-0.0256155	-0.133946	0.0339082	0.579433	2.09
0.14	-0.0666715	0.0262403	0.0182466	-1.15985	1.27233	-0.586574	0.0924821	-0.0709611	-0.158091	0.162904	0.325566	0.245513	0	0.0517744	0.00903587	0.0721956	0.0616338	0.174465	-0.0529471	0	-0.0382005	-0.036271	-0.039433	-0.0319908	-0.143942	0.124915	0.632699	2.09	-0.0251962	-0.133304	0.0323383	0.579539	2.09
0.15	-0.0666932	0.026489	0.0180205	-1.15979	1.27232	-0.586546	0.0934708	-0.0714799	-0.15897	0.164993	0.32704	0.247644	0	0.0524459	0.00932523	0.0710056	0.0631341	0.175901	-0.0510484	0	-0.0392438	-0.0362938	-0.0384323	-0.0318532	-0.143993	0.126035	0.63225	2.09	-0.0247242	-0.133137	0.0323743	0.579698	2.09
